<svg width="314" height="219" viewBox="0 0 314 219" fill="none" xmlns="http://www.w3.org/2000/svg">
<path d="M97.0917 45.533C110.295 60.6395 147.311 74.6143 186.607 59.1158C186.607 59.1158 181.138 43.2628 155.864 48.9403C142.388 51.9667 120.802 49.5723 111.913 36.6951C103.022 23.8174 104.271 7.59953 90.3483 3.32669C84.6251 1.5703 79.9076 5.5396 79.9076 5.5396C92.6259 15.479 83.8884 30.4253 97.0917 45.533" fill="#FEFCFC"/>
<path d="M164.576 97.9017C161.685 100.683 161.882 105.369 165.023 107.865L165.031 107.871C167.615 109.925 171.323 109.755 173.703 107.467C183.549 97.999 196.575 94.1724 203.944 92.689C204.677 92.5415 205.348 92.2635 205.963 91.9054C203.458 87.7965 201.094 83.8617 198.932 80.2316C189.729 82.3431 175.765 87.1403 164.576 97.9017Z" fill="#FEFCFC"/>
<path d="M191.575 119.573C188.395 122.269 188.466 127.201 191.731 129.796C194.166 131.732 197.665 131.757 200.028 129.733C204.942 125.528 217.484 120.271 222.828 118.674C220.355 114.907 217.882 111.056 215.454 107.213C208.066 109.879 197.157 114.838 191.575 119.573Z" fill="#FEFCFC"/>
<path d="M232.476 132.905C228.304 134.681 221.153 137.803 220.011 138.478C216.072 140.811 215.785 146.426 219.37 149.275L219.38 149.284C221.49 150.96 224.429 151.224 226.75 149.854C227.595 149.356 239.28 144.359 240.106 144.048C240.266 143.988 240.409 143.903 240.561 143.831C238.006 140.582 235.285 136.889 232.476 132.905" fill="#FEFCFC"/>
<path d="M295.286 197.435C295.833 181.706 285.854 166.939 270.088 162.101L254.535 157.328L247.804 179.261C247.804 179.261 171.414 171.075 153.898 165.699C136.38 160.323 130.126 143.147 112.018 137.59C93.9089 132.032 78.5506 140.93 62.8315 136.106C47.1124 131.282 40.4252 121.955 42.1843 116.223C43.9434 110.491 47.2531 105.01 53.5008 91.5869C59.523 78.6484 50.4371 62.4039 36.5496 57.188C18.0375 87.097 4.468 118.116 2.00416 123.867C1.53162 127.411 3.63302 130.989 7.29129 132.112L77.585 153.684C86.6695 156.472 96.2816 151.719 106.341 154.806C116.401 157.893 120.023 166.708 128.31 169.251L282.75 216.647C286.753 217.875 290.992 215.627 292.22 211.626L295.251 201.749C295.699 200.29 295.679 198.8 295.286 197.435" fill="#FEFCFC"/>
</svg>
